<svg width="175" height="30" viewBox="0 0 175 30" fill="none" xmlns="http://www.w3.org/2000/svg">
<path fill-rule="evenodd" clip-rule="evenodd" d="M18.4206 11.525C10.7698 11.525 4.56761 17.7272 4.56761 25.378C4.56761 25.442 4.56804 25.5059 4.56891 25.5698C7.02523 27.7881 10.2801 29.1388 13.8505 29.1388C19.582 29.1388 24.5005 25.6581 26.6075 20.6952C27.3131 19.0333 27.7035 17.2051 27.7035 15.2858C27.7035 15.2218 27.703 15.1579 27.7022 15.094C27.5995 7.53167 21.4373 1.43288 13.8505 1.43288C11.6837 1.43288 9.63317 1.93034 7.80675 2.81728C3.91193 4.70869 1.03652 8.37128 0.22768 12.7579C0.0918846 13.4944 0.0143394 14.2512 0 15.0236C0.0208642 15.0237 0.0417463 15.0238 0.0626457 15.0238C4.7893 15.0238 8.62101 11.1921 8.62101 6.46544C8.62101 5.98487 8.5814 5.51355 8.50527 5.05458C9.91035 4.57472 11.4171 4.31434 12.9847 4.31434C19.1429 4.31434 24.3625 8.33256 26.1648 13.8901C23.954 12.3969 21.2891 11.525 18.4206 11.525ZM16.0286 26.0031C20.009 26.0031 23.3548 23.2857 24.312 19.6049C23.3405 19.2219 22.2821 19.0116 21.1746 19.0116C17.1942 19.0116 13.8484 21.7289 12.8912 25.4098C13.8627 25.7927 14.9211 26.0031 16.0286 26.0031Z" fill="#FF3355"/>
<path d="M172.505 5.32721C171.789 5.32721 171.19 5.10479 170.706 4.65995C170.242 4.19576 170.01 3.62521 170.01 2.94827C170.01 2.27134 170.242 1.71045 170.706 1.26561C171.19 0.801427 171.789 0.569336 172.505 0.569336C173.221 0.569336 173.811 0.801427 174.275 1.26561C174.758 1.71045 175 2.27134 175 2.94827C175 3.62521 174.758 4.19576 174.275 4.65995C173.811 5.10479 173.221 5.32721 172.505 5.32721ZM174.507 7.24196V23.3143H170.445V7.24196H174.507Z" fill="white"/>
<path d="M160.876 7.00987C162.849 7.00987 164.434 7.61911 165.634 8.83759C166.852 10.0367 167.461 11.7194 167.461 13.8856V23.3143H163.4V14.4368C163.4 13.1796 163.081 12.2223 162.442 11.5647C161.804 10.8877 160.934 10.5493 159.831 10.5493C158.729 10.5493 157.849 10.8877 157.191 11.5647C156.553 12.2223 156.234 13.1796 156.234 14.4368V23.3143H152.172V14.4368C152.172 13.1796 151.853 12.2223 151.215 11.5647C150.577 10.8877 149.706 10.5493 148.604 10.5493C147.482 10.5493 146.592 10.8877 145.935 11.5647C145.297 12.2223 144.977 13.1796 144.977 14.4368V23.3143H140.916V7.24196H144.977V9.18573C145.5 8.50879 146.167 7.97692 146.979 7.5901C147.811 7.20328 148.72 7.00987 149.706 7.00987C150.964 7.00987 152.085 7.28064 153.072 7.82219C154.058 8.34439 154.822 9.09869 155.364 10.0851C155.886 9.15671 156.64 8.41209 157.626 7.8512C158.632 7.29031 159.715 7.00987 160.876 7.00987Z" fill="white"/>
<path d="M130.423 23.5754C128.875 23.5754 127.483 23.2369 126.245 22.56C125.007 21.8637 124.03 20.887 123.315 19.6298C122.619 18.3727 122.27 16.9221 122.27 15.2781C122.27 13.6341 122.628 12.1836 123.344 10.9264C124.079 9.66925 125.075 8.7022 126.332 8.02527C127.589 7.329 128.991 6.98086 130.539 6.98086C132.086 6.98086 133.488 7.329 134.745 8.02527C136.002 8.7022 136.989 9.66925 137.704 10.9264C138.439 12.1836 138.807 13.6341 138.807 15.2781C138.807 16.9221 138.43 18.3727 137.675 19.6298C136.94 20.887 135.935 21.8637 134.658 22.56C133.401 23.2369 131.989 23.5754 130.423 23.5754ZM130.423 20.036C131.158 20.036 131.844 19.8619 132.482 19.5138C133.14 19.1463 133.662 18.6048 134.049 17.8892C134.436 17.1735 134.629 16.3032 134.629 15.2781C134.629 13.7502 134.223 12.5801 133.411 11.7677C132.618 10.9361 131.641 10.5203 130.481 10.5203C129.32 10.5203 128.343 10.9361 127.55 11.7677C126.777 12.5801 126.39 13.7502 126.39 15.2781C126.39 16.8061 126.767 17.9859 127.521 18.8175C128.295 19.6298 129.262 20.036 130.423 20.036Z" fill="white"/>
<path d="M113.882 7.00987C115.797 7.00987 117.344 7.61911 118.524 8.83759C119.704 10.0367 120.294 11.7194 120.294 13.8856V23.3143H116.232V14.4368C116.232 13.1603 115.913 12.1836 115.275 11.5066C114.637 10.8104 113.766 10.4622 112.664 10.4622C111.542 10.4622 110.652 10.8104 109.995 11.5066C109.356 12.1836 109.037 13.1603 109.037 14.4368V23.3143H104.976V7.24196H109.037V9.24375C109.579 8.54748 110.265 8.00593 111.097 7.61911C111.948 7.21295 112.876 7.00987 113.882 7.00987Z" fill="white"/>
<path d="M94.4824 23.5754C92.9352 23.5754 91.5426 23.2369 90.3048 22.56C89.067 21.8637 88.0902 20.887 87.3746 19.6298C86.6784 18.3727 86.3302 16.9221 86.3302 15.2781C86.3302 13.6341 86.688 12.1836 87.4036 10.9264C88.1386 9.66925 89.1347 8.7022 90.3918 8.02527C91.649 7.329 93.0512 6.98086 94.5985 6.98086C96.1457 6.98086 97.548 7.329 98.8051 8.02527C100.062 8.7022 101.049 9.66925 101.764 10.9264C102.499 12.1836 102.867 13.6341 102.867 15.2781C102.867 16.9221 102.49 18.3727 101.735 19.6298C101 20.887 99.9946 21.8637 98.7181 22.56C97.4609 23.2369 96.049 23.5754 94.4824 23.5754ZM94.4824 20.036C95.2174 20.036 95.904 19.8619 96.5422 19.5138C97.1998 19.1463 97.722 18.6048 98.1089 17.8892C98.4957 17.1735 98.6891 16.3032 98.6891 15.2781C98.6891 13.7502 98.2829 12.5801 97.4706 11.7677C96.6776 10.9361 95.7009 10.5203 94.5405 10.5203C93.38 10.5203 92.4033 10.9361 91.6103 11.7677C90.8367 12.5801 90.4498 13.7502 90.4498 15.2781C90.4498 16.8061 90.827 17.9859 91.5813 18.8175C92.3549 19.6298 93.322 20.036 94.4824 20.036Z" fill="white"/>
<path d="M81.6972 10.5783V18.3533C81.6972 18.8949 81.823 19.2914 82.0744 19.5428C82.3452 19.7749 82.79 19.8909 83.4089 19.8909H85.2946V23.3143H82.7416C79.3183 23.3143 77.6066 21.651 77.6066 18.3243V10.5783H75.6919V7.24196H77.6066V3.2674H81.6972V7.24196H85.2946V10.5783H81.6972Z" fill="white"/>
<path d="M73.8313 7.24196V23.3143H69.7407V21.2835C69.2185 21.9798 68.5319 22.531 67.6809 22.9371C66.8492 23.324 65.9402 23.5174 64.9538 23.5174C63.6966 23.5174 62.5845 23.2563 61.6175 22.7341C60.6504 22.1925 59.8865 21.4092 59.3256 20.3841C58.784 19.3397 58.5133 18.1019 58.5133 16.6707V7.24196H62.5749V16.0904C62.5749 17.3669 62.894 18.3533 63.5322 19.0496C64.1705 19.7265 65.0408 20.065 66.1433 20.065C67.265 20.065 68.1451 19.7265 68.7833 19.0496C69.4216 18.3533 69.7407 17.3669 69.7407 16.0904V7.24196H73.8313Z" fill="white"/>
<path d="M38.8222 15.2201C38.8222 13.5955 39.1413 12.1546 39.7796 10.8974C40.4372 9.64024 41.3172 8.67319 42.4196 7.99626C43.5414 7.31933 44.7889 6.98086 46.1621 6.98086C47.3612 6.98086 48.4057 7.22262 49.2953 7.70614C50.2044 8.18967 50.9296 8.79891 51.4712 9.53386V7.24196H55.5618V23.3143H51.4712V20.9644C50.949 21.7187 50.2237 22.3472 49.2953 22.8501C48.3863 23.3336 47.3322 23.5754 46.1331 23.5754C44.7792 23.5754 43.5414 23.2273 42.4196 22.531C41.3172 21.8347 40.4372 20.858 39.7796 19.6008C39.1413 18.3243 38.8222 16.8641 38.8222 15.2201ZM51.4712 15.2781C51.4712 14.2917 51.2778 13.4504 50.891 12.7541C50.5041 12.0385 49.9819 11.497 49.3243 11.1295C48.6668 10.7427 47.9608 10.5493 47.2065 10.5493C46.4522 10.5493 45.7559 10.733 45.1177 11.1005C44.4794 11.468 43.9572 12.0095 43.5511 12.7251C43.1643 13.4214 42.9708 14.2531 42.9708 15.2201C42.9708 16.1871 43.1643 17.0381 43.5511 17.7731C43.9572 18.4887 44.4794 19.0399 45.1177 19.4268C45.7753 19.8136 46.4716 20.007 47.2065 20.007C47.9608 20.007 48.6668 19.8232 49.3243 19.4558C49.9819 19.0689 50.5041 18.5274 50.891 17.8311C51.2778 17.1155 51.4712 16.2645 51.4712 15.2781Z" fill="white"/>
</svg>
